
<svg id="Layer_1" data-name="Layer 1" xmlns="http://www.w3.org/2000/svg" viewBox="0 0 338.14 141.52">
	<defs>
		<style>
			.cls-1{fill:#a6dcef;stroke:#fff;stroke-miterlimit:10;stroke-width:.5px;}
		</style>
	</defs>
	<title>
		CtrlN_logo_animation
	</title>
	<path class="cls-1" d="M55.12,142.82a32.94,32.94,0,0,1-17.32-4.68,41.35,41.35,0,0,1-13.17-12.82,64.06,64.06,0,0,1-8.31-19.09,92,92,0,0,1-2.91-23.68A114.51,114.51,0,0,1,17.65,50,82.5,82.5,0,0,1,28.87,25.81a52.38,52.38,0,0,1,15.91-15.2A35.37,35.37,0,0,1,63.07,5.3q8.85,0,14.85,3.18a28,28,0,0,1,9.64,8.14,29.08,29.08,0,0,1,5,10.87,35.38,35.38,0,0,1,.79,11.22q-.89,10.26-7,16.62t-14,6.36a30.47,30.47,0,0,1-5.48-.89,25.27,25.27,0,0,1-5.13-2.12,17.33,17.33,0,0,1-4.95-4.06q7.42.52,11.49-3a22.53,22.53,0,0,0,6-8,36.42,36.42,0,0,0,2.48-12,17.46,17.46,0,0,0-1.24-6.81,13.54,13.54,0,0,0-7.6-7.51,12.32,12.32,0,0,0-4.42-.88q-4.77,0-10.34,3.71A39.14,39.14,0,0,0,42.57,31.37a68.65,68.65,0,0,0-8.22,19.1Q31.08,62,31.08,78q0,15.74,2.83,25.72t6.89,15.55q4.06,5.58,8.58,7.6a19.3,19.3,0,0,0,7.69,2,22.23,22.23,0,0,0,11.31-4.25q4.41-3.18,8.39-10.16t5.39-20.06A8.78,8.78,0,0,1,86,95.45a19.7,19.7,0,0,1,2.57,1.77,14,14,0,0,1,1.94,2.47,14,14,0,0,1,0,3.54,50.71,50.71,0,0,1-1.24,8.13A64.25,64.25,0,0,1,86,121.61a38.33,38.33,0,0,1-6.18,10.25,31.77,31.77,0,0,1-10,7.87A31.82,31.82,0,0,1,55.12,142.82Z" transform="translate(-11.41 -3.3)" />
	<path class="cls-1" d="M178.18,48.61c-1.3-.24-3-.47-5.22-.71s-4.39-.41-6.62-.53c-2.6-.11-5.37-.18-8.31-.18A95.89,95.89,0,0,0,147,47.11q-6.63.26-13.87.26-.18,4.6-.62,9.37c-.3,3.18-.56,6.31-.8,9.37q-.88,8.48-1.5,17.32t-.62,16.79a97,97,0,0,0,1,14.41,23.34,23.34,0,0,0,3.63,10.16,15.65,15.65,0,0,1-4.6,2.39,36,36,0,0,1-4.42,1.15,20.53,20.53,0,0,1-4.59.53,4.81,4.81,0,0,1-3.54-1.42q-1.41-1.41-1.59-5a119.16,119.16,0,0,1-.09-12.11q.27-6.09.71-12.81t1-14.41q.53-7.68,1.06-16.88.54-9.54.53-18.56-6.72.18-11.31.18a34.64,34.64,0,0,1-5.13-.18,4.8,4.8,0,0,1-1.23-1.59q-.7-1.05-1.86-3.18c-.76-1.41-1.74-3.41-2.92-6h7.34q4,0,7.33-.17l7.78-.36c-.12-1.88-.17-3.89-.17-6-.12-1.65-.18-3.5-.18-5.57s-.06-4-.18-5.74c0-.71.86-1.56,2.56-2.56a44.4,44.4,0,0,1,5.57-2.74,22.51,22.51,0,0,1,5.57-1.59c1.71-.24,2.56.17,2.56,1.23s0,3.63-.08,7.69-.21,9-.45,14.76a15.53,15.53,0,0,0,2.65-.17q9.38-.36,15.12-.8a58.12,58.12,0,0,1,9.45-.09,18.5,18.5,0,0,1,6.54,1.77,29.92,29.92,0,0,1,6.37,4.59,13.43,13.43,0,0,1,2.12,2.3,10.74,10.74,0,0,1,1.5,2.39A6.44,6.44,0,0,1,178.18,48.61Z" transform="translate(-11.41 -3.3)" />
	<path class="cls-1" d="M205.44,73a11,11,0,0,1-1.33,5,25.56,25.56,0,0,1-3.27,4.86,23.24,23.24,0,0,1-4.33,4,11.2,11.2,0,0,1-4.51,2q1.41-5.47.89-8.49A9.17,9.17,0,0,0,191.12,76a5.17,5.17,0,0,0-3.54-1.77q-3.18,0-6.1,3.62a35.29,35.29,0,0,0-5,8.84,63.66,63.66,0,0,0-3.36,11.14,52.42,52.42,0,0,0-1.24,10.69,39.35,39.35,0,0,0,.18,6.54c.12,1.77.32,3.6.62,5.48A13.43,13.43,0,0,0,174,125a19.59,19.59,0,0,1-3.44,2.12,15.57,15.57,0,0,1-4.95,1.59,6.86,6.86,0,0,1-4.6-.88c-1.35-.83-2.09-2.59-2.21-5.31s-.38-5.5-.44-8.75-.06-6.48,0-9.72.15-6.45.26-9.63.3-6.13.54-8.84q.35-7.77.35-12t-.18-8.13c0-.47.8-1.15,2.39-2A36.61,36.61,0,0,1,167,61a20,20,0,0,1,5.39-1.24c1.65-.11,2.48.24,2.48,1.06,0,1.3-.15,3.87-.45,7.69s-.68,7.81-1.14,11.93a61.06,61.06,0,0,1,3.27-7.24,45.84,45.84,0,0,1,4.68-7.25,25.68,25.68,0,0,1,6-5.57,13.24,13.24,0,0,1,7.42-2.21,7.25,7.25,0,0,1,5.22,2,16.21,16.21,0,0,1,3.27,4.42,20.85,20.85,0,0,1,1.76,5A19.08,19.08,0,0,1,205.44,73Z" transform="translate(-11.41 -3.3)" />
	<path class="cls-1" d="M243.12,12.73q-.36,6.36-1.24,14.67T240,45.25q-1,9.54-1.95,20t-1.68,21q-.71,10.6-.62,17.23a74.58,74.58,0,0,0,.8,10.87,24,24,0,0,0,1.95,6.72,23.59,23.59,0,0,0,3.18,4.77,23.28,23.28,0,0,1-4.25,2.12,33.17,33.17,0,0,1-3.35,1.06,11,11,0,0,1-3.19.53,5.65,5.65,0,0,1-4.59-2.56,19.64,19.64,0,0,1-3.09-6.63,60,60,0,0,1-1.77-9.1,80.45,80.45,0,0,1-.62-10q0-5.3.35-12.28t.8-14.85q.44-7.86,1-16.44t.88-17.06q.36-6.52.71-11.84c.24-3.06.41-5.86.53-8.39s.06-4-.18-4.51a6.69,6.69,0,0,1,2.66-2.12c1.06-.47,2.06-.89,3-1.24,1.18-.35,2.36-.65,3.54-.88h3.35a17.93,17.93,0,0,1,3,.26A9.34,9.34,0,0,1,243.12,12.73Z" transform="translate(-11.41 -3.3)" />
	<path class="cls-1" d="M263.13,120.73Q263,117.19,263,111t.35-13.7q.27-7.5.62-15.9t.62-16.53q.27-8.13.53-15.47c.18-4.88.32-9.16.44-12.81.12-2.59.24-5.13.36-7.6q.17-3.18.17-6.9a56.87,56.87,0,0,0-.35-6.71,15.44,15.44,0,0,0,2.3-1.06c.59-.36,1.18-.74,1.77-1.15l2-1.42a18,18,0,0,1,3.27-1.67,17.16,17.16,0,0,1,2.65-.89,18.25,18.25,0,0,1,2.74-.53,16.22,16.22,0,0,1,3.27,0q3,9.9,6.1,18.3t6.27,16.26q3.18,7.86,6.72,15.73t7.25,16.88Q314,85,317.22,92.62t5.3,13.26q.35-6.36.71-14.23t.53-16.17q.17-8.31.26-16.35c.06-5.37.12-10.37.18-15s.09-8.75.09-12.28V24a11.22,11.22,0,0,1,2.38-7.34A19.91,19.91,0,0,1,332.15,12a22.56,22.56,0,0,1,6.19-2.47,23,23,0,0,1,4.51-.71,7.88,7.88,0,0,1,1.76.17l1.33.36a2.15,2.15,0,0,1,1,.53,29,29,0,0,0-4.42,8.66,57.38,57.38,0,0,0-2,9.19,68,68,0,0,0-.62,9V44.9q-.18,8.84-.53,21.74-.36,11.13-.53,27.75t-.17,39.77q-3.72,3-6.9,5.13t-8.13,1.41a4.87,4.87,0,0,1-3.45-1.77,20.46,20.46,0,0,1-2.65-4.51,71.72,71.72,0,0,1-2.74-7.24Q313.33,122.85,311,117q-4.06-10.24-8.31-20.68t-8.13-19.79q-3.88-9.37-7.16-17.06T282,47a292.27,292.27,0,0,0-2.91,41.71q.25,17.51,1.15,25.63c.35,2.36.76,4.77,1.23,7.25q.71,3.18,1.77,7.16a57.25,57.25,0,0,0,2.83,8,16.89,16.89,0,0,1-5.92,4.07,29,29,0,0,1-5.22,1.41,14.83,14.83,0,0,1-5.12-.18,4.58,4.58,0,0,1-2.39-2.38,24.18,24.18,0,0,1-2-5,58.34,58.34,0,0,1-1.5-6.63A59.53,59.53,0,0,1,263.13,120.73Z" transform="translate(-11.41 -3.3)" />
</svg>
