<?xml version="1.0" standalone="no"?>
<!DOCTYPE svg PUBLIC "-//W3C//DTD SVG 20010904//EN"
 "http://www.w3.org/TR/2001/REC-SVG-20010904/DTD/svg10.dtd">
<svg version="1.0" xmlns="http://www.w3.org/2000/svg"
 width="150.000000pt" height="140.000000pt" viewBox="0 0 352.000000 328.000000"
 preserveAspectRatio="xMidYMid meet">
<metadata>
Created by potrace 1.16, written by Peter Selinger 2001-2019
</metadata>
<g transform="translate(0.000000,328.000000) scale(0.100000,-0.100000)"
fill="#000000" stroke="none">
<path d="M0 1640 l0 -1640 1760 0 1760 0 0 1640 0 1640 -1760 0 -1760 0 0
-1640z m3358 1463 c-1 -5 -48 -93 -103 -198 -54 -104 -231 -446 -391 -760
l-292 -570 -66 -3 -66 -3 -35 -69 -35 -70 288 0 c283 0 290 0 333 -23 89 -47
118 -161 62 -241 -15 -22 -44 -49 -63 -61 -34 -19 -53 -20 -462 -23 -283 -2
-441 1 -467 8 -116 31 -166 153 -106 257 14 23 32 43 40 43 8 0 15 4 15 9 0
20 69 31 191 31 l129 0 35 70 35 70 -180 0 c-99 0 -180 3 -180 7 0 3 58 119
129 257 71 138 206 403 301 589 l172 337 -466 0 -466 0 56 113 c31 61 72 140
91 175 l35 62 735 0 c404 0 733 -3 731 -7z m-1215 -718 l-88 -175 -332 0 -333
0 -75 -150 -75 -150 305 0 c168 0 305 -3 305 -7 -1 -5 -38 -80 -83 -168 l-82
-160 -310 -3 -310 -2 -176 -343 -175 -342 -267 -3 c-147 -1 -267 0 -267 3 0 3
192 381 426 840 l426 835 599 0 599 0 -87 -175z m-1119 -1754 c14 -16 16 -26
9 -48 -9 -25 -15 -28 -60 -31 -48 -3 -51 -1 -46 18 4 15 1 20 -15 20 -24 0
-55 -27 -49 -43 2 -7 23 -23 47 -37 52 -31 65 -49 56 -83 -18 -73 -103 -126
-204 -127 -81 0 -102 11 -102 53 0 45 16 57 71 57 44 0 46 -1 41 -25 -4 -21
-1 -25 21 -25 24 0 57 31 57 53 0 4 -17 15 -37 24 -82 33 -91 64 -40 139 38
58 72 73 168 73 53 1 69 -3 83 -18z m322 2 c-2 -10 -19 -89 -37 -175 l-32
-158 -55 0 -54 0 6 30 c5 29 5 30 -34 30 -32 0 -43 -5 -62 -30 -19 -27 -27
-30 -76 -30 -29 0 -52 4 -50 8 2 5 64 84 138 175 l135 166 63 0 c56 1 63 -1
58 -16z m202 -118 l-69 -135 66 0 65 0 -20 -40 -20 -40 -120 0 -120 0 56 113
c31 61 72 140 91 175 l35 62 52 0 52 0 -68 -135z m473 114 c25 -25 20 -56 -21
-144 -65 -136 -127 -185 -236 -185 -111 0 -127 37 -70 155 73 151 127 194 244
195 50 0 66 -4 83 -21z m244 -16 c-4 -21 -11 -60 -16 -86 -15 -79 -10 -76 42
26 l49 97 50 0 50 0 -87 -172 -88 -173 -57 -3 c-67 -3 -64 -11 -43 107 8 47
13 86 12 88 -2 1 -25 -42 -52 -97 l-49 -100 -48 0 c-26 0 -48 3 -48 6 0 4 39
83 88 175 l87 169 58 0 58 0 -6 -37z"/>
</g>
</svg>
